<?xml version="1.0" standalone="no"?><!-- Generator: Gravit.io --><svg xmlns="http://www.w3.org/2000/svg" xmlns:xlink="http://www.w3.org/1999/xlink" style="isolation:isolate" viewBox="0 0 550 500" width="550" height="500"><g id="693"><g id="g12"><line x1="5" y1="478.282" x2="545" y2="478.282" vector-effect="non-scaling-stroke" stroke-width="6.163" stroke="rgb(107,104,129)" stroke-linejoin="miter" stroke-linecap="butt" stroke-miterlimit="10"/><path d=" M 104.381 248.615 L 162.59 248.615 L 162.59 123.41 L 104.381 123.41 L 104.381 248.615 Z " fill="rgb(28,37,74)"/><path d=" M 39.726 204.679 L 226.385 204.679 L 226.385 84.154 C 226.385 79.937 222.967 76.519 218.751 76.519 L 47.361 76.519 C 43.144 76.519 39.726 79.937 39.726 84.154 L 39.726 204.679 Z " fill="rgb(109,107,129)"/><path d=" M 57.629 223.401 L 212.004 223.401 C 220.906 223.401 228.122 216.184 228.122 207.283 L 228.122 201.108 L 41.51 201.108 L 41.51 207.283 C 41.51 216.184 48.726 223.401 57.629 223.401 Z " fill="rgb(109,107,129)"/><path d=" M 232.918 84.147 L 232.918 204.679 L 187.112 203.949 L 139.166 203.183 L 124.024 202.936 L 75.568 202.162 L 46.251 201.695 L 46.251 84.147 C 46.251 79.939 49.667 76.523 53.884 76.523 L 225.276 76.523 C 229.502 76.523 232.918 79.939 232.918 84.147" fill="rgb(41,41,53)"/><path d=" M 53.223 87.563 L 53.223 193.9 C 53.223 194.29 53.539 194.606 53.928 194.606 L 225.243 194.606 C 225.633 194.606 225.948 194.29 225.948 193.9 L 225.948 87.563 C 225.948 87.173 225.633 86.857 225.243 86.857 L 53.928 86.857 C 53.539 86.857 53.223 87.173 53.223 87.563 Z " fill="rgb(255,255,255)"/><path d=" M 62.393 223.401 L 216.769 223.401 C 225.671 223.401 232.887 216.184 232.887 207.283 L 232.887 201.108 L 46.275 201.108 L 46.275 207.283 C 46.275 216.184 53.491 223.401 62.393 223.401" fill="rgb(159,154,175)"/><path d=" M 102.913 249.1 L 180.938 249.1 C 183.332 249.1 185.273 247.159 185.273 244.765 C 185.273 242.371 183.332 240.43 180.938 240.43 L 102.913 240.43 C 100.519 240.43 98.578 242.371 98.578 244.765 C 98.578 247.159 100.519 249.1 102.913 249.1 Z " fill="rgb(159,154,175)"/><path d=" M 217.754 105.56 L 64.307 105.56 C 63.03 105.56 61.994 104.525 61.994 103.247 L 61.994 94.296 C 61.994 93.018 63.03 91.982 64.307 91.982 L 217.754 91.982 C 219.032 91.982 220.068 93.018 220.068 94.296 L 220.068 103.247 C 220.068 104.525 219.032 105.56 217.754 105.56 Z " fill="rgb(111,132,202)"/><path d=" M 73.967 98.559 C 73.967 100.197 72.671 101.526 71.071 101.526 C 69.472 101.526 68.175 100.197 68.175 98.559 C 68.175 96.92 69.472 95.592 71.071 95.592 C 72.671 95.592 73.967 96.92 73.967 98.559 Z " fill="rgb(235,61,60)"/><path d=" M 84.525 98.559 C 84.525 100.197 83.229 101.526 81.629 101.526 C 80.031 101.526 78.735 100.197 78.735 98.559 C 78.735 96.92 80.031 95.592 81.629 95.592 C 83.229 95.592 84.525 96.92 84.525 98.559 Z " fill="rgb(251,192,44)"/><path d=" M 95.084 98.559 C 95.084 100.197 93.787 101.526 92.189 101.526 C 90.59 101.526 89.293 100.197 89.293 98.559 C 89.293 96.92 90.59 95.592 92.189 95.592 C 93.787 95.592 95.084 96.92 95.084 98.559 Z " fill="rgb(148,209,34)"/><path d=" M 114.264 129.384 L 62.984 129.384 C 62.214 129.384 61.59 128.76 61.59 127.991 L 61.59 112.348 C 61.59 111.579 62.214 110.955 62.984 110.955 L 114.264 110.955 C 115.034 110.955 115.657 111.579 115.657 112.348 L 115.657 127.991 C 115.657 128.76 115.034 129.384 114.264 129.384 Z " fill="rgb(47,57,110)"/><path d=" M 177.208 152.662 L 125.927 152.662 C 125.158 152.662 124.534 152.038 124.534 151.269 L 124.534 135.627 C 124.534 134.858 125.158 134.233 125.927 134.233 L 177.208 134.233 C 177.977 134.233 178.6 134.858 178.6 135.627 L 178.6 151.269 C 178.6 152.038 177.977 152.662 177.208 152.662 Z " fill="rgb(95,140,102)"/><path d=" M 218.674 129.383 L 187.659 129.383 C 186.89 129.383 186.267 128.76 186.267 127.991 L 186.267 112.348 C 186.267 111.579 186.89 110.955 187.659 110.955 L 218.674 110.955 C 219.444 110.955 220.068 111.579 220.068 112.348 L 220.068 127.991 C 220.068 128.76 219.444 129.383 218.674 129.383 Z " fill="rgb(95,140,102)"/><path d=" M 218.674 153.026 L 187.659 153.026 C 186.89 153.026 186.267 152.402 186.267 151.632 L 186.267 135.991 C 186.267 135.221 186.89 134.597 187.659 134.597 L 218.674 134.597 C 219.444 134.597 220.068 135.221 220.068 135.991 L 220.068 151.632 C 220.068 152.402 219.444 153.026 218.674 153.026 Z " fill="rgb(235,61,60)"/><path d=" M 124.937 127.033 L 179.003 127.033 L 179.003 125.712 L 124.937 125.712 L 124.937 127.033 Z " fill="rgb(28,37,74)"/><path d=" M 124.937 122.33 L 179.003 122.33 L 179.003 121.008 L 124.937 121.008 L 124.937 122.33 Z " fill="rgb(28,37,74)"/><path d=" M 124.937 117.628 L 179.003 117.628 L 179.003 116.306 L 124.937 116.306 L 124.937 117.628 Z " fill="rgb(28,37,74)"/><path d=" M 124.937 112.926 L 179.003 112.926 L 179.003 111.604 L 124.937 111.604 L 124.937 112.926 Z " fill="rgb(28,37,74)"/><path d=" M 114.264 175.577 L 62.984 175.577 C 62.214 175.577 61.59 174.953 61.59 174.183 L 61.59 158.541 C 61.59 157.772 62.214 157.148 62.984 157.148 L 114.264 157.148 C 115.034 157.148 115.657 157.772 115.657 158.541 L 115.657 174.183 C 115.657 174.953 115.034 175.577 114.264 175.577 Z " fill="rgb(235,61,60)"/><path d=" M 124.937 173.225 L 179.003 173.225 L 179.003 171.904 L 124.937 171.904 L 124.937 173.225 Z " fill="rgb(28,37,74)"/><path d=" M 124.937 168.523 L 179.003 168.523 L 179.003 167.202 L 124.937 167.202 L 124.937 168.523 Z " fill="rgb(28,37,74)"/><path d=" M 124.937 163.821 L 179.003 163.821 L 179.003 162.499 L 124.937 162.499 L 124.937 163.821 Z " fill="rgb(28,37,74)"/><path d=" M 124.937 159.118 L 179.003 159.118 L 179.003 157.797 L 124.937 157.797 L 124.937 159.118 Z " fill="rgb(28,37,74)"/><path d=" M 61.389 149.584 L 115.456 149.584 L 115.456 148.262 L 61.389 148.262 L 61.389 149.584 Z " fill="rgb(28,37,74)"/><path d=" M 61.389 144.881 L 115.456 144.881 L 115.456 143.559 L 61.389 143.559 L 61.389 144.881 Z " fill="rgb(28,37,74)"/><path d=" M 61.389 140.179 L 115.456 140.179 L 115.456 138.857 L 61.389 138.857 L 61.389 140.179 Z " fill="rgb(28,37,74)"/><path d=" M 61.389 135.477 L 115.456 135.477 L 115.456 134.155 L 61.389 134.155 L 61.389 135.477 Z " fill="rgb(28,37,74)"/><path d=" M 139.247 201.108 L 75.648 201.108 L 78.638 194.606 L 142.261 194.606 L 139.247 201.108 Z  M 176.744 86.857 L 128.19 86.857 L 132.942 76.523 L 171.238 76.523 C 172.818 80.471 174.736 83.909 176.744 86.857" fill="rgb(53,53,81)"/><path d=" M 142.261 194.606 L 78.638 194.606 L 87.389 175.577 L 114.264 175.577 C 115.034 175.577 115.657 174.953 115.657 174.183 L 115.657 158.541 C 115.657 157.772 115.034 157.148 114.264 157.148 L 95.864 157.148 L 99.343 149.584 L 115.455 149.584 L 115.455 148.262 L 99.951 148.262 L 101.506 144.881 L 115.455 144.881 L 115.455 143.559 L 102.113 143.559 L 103.668 140.179 L 115.455 140.179 L 115.455 138.857 L 104.276 138.857 L 105.831 135.477 L 115.455 135.477 L 115.455 134.155 L 106.438 134.155 L 108.632 129.384 L 114.264 129.384 C 115.034 129.384 115.657 128.76 115.657 127.991 L 115.657 114.109 L 119.588 105.56 L 183.537 105.56 L 178.556 116.306 L 124.937 116.306 L 124.937 117.628 L 177.944 117.628 L 176.376 121.008 L 124.937 121.008 L 124.937 122.33 L 175.764 122.33 L 174.197 125.711 L 124.937 125.711 L 124.937 127.033 L 173.584 127.033 L 170.246 134.233 L 125.927 134.233 C 125.158 134.233 124.534 134.858 124.534 135.627 L 124.534 151.269 C 124.534 152.038 125.158 152.662 125.927 152.662 L 161.703 152.662 L 159.324 157.797 L 124.937 157.797 L 124.937 159.118 L 158.711 159.118 L 157.144 162.499 L 124.937 162.499 L 124.937 163.821 L 156.531 163.821 L 154.964 167.202 L 124.937 167.202 L 124.937 168.523 L 154.351 168.523 L 152.784 171.904 L 124.937 171.904 L 124.937 173.225 L 152.171 173.225 L 142.261 194.606 M 124.937 111.604 L 124.937 112.926 L 179.003 112.926 L 179.003 111.604 L 124.937 111.604 M 180.696 91.982 L 125.833 91.982 L 128.19 86.857 L 176.744 86.857 C 178.046 88.77 179.386 90.476 180.696 91.982 Z " fill="rgb(255,255,255)"/><path d=" M 139.166 201.281 L 75.568 201.281 L 75.648 201.108 L 139.247 201.108 L 139.166 201.281 Z " fill="rgb(192,187,216)"/><path d=" M 183.537 105.56 L 119.588 105.56 L 125.833 91.982 L 180.696 91.982 C 183.012 94.644 185.233 96.678 186.988 98.118 L 183.537 105.56 Z " fill="rgb(148,174,224)"/><path d=" M 114.264 129.384 L 108.632 129.384 L 115.657 114.109 L 115.657 127.991 C 115.657 128.76 115.034 129.384 114.264 129.384 Z " fill="rgb(63,74,166)"/><path d=" M 161.703 152.662 L 125.927 152.662 C 125.158 152.662 124.534 152.038 124.534 151.269 L 124.534 135.627 C 124.534 134.858 125.158 134.233 125.927 134.233 L 170.246 134.233 L 161.703 152.662 Z " fill="rgb(130,182,155)"/><path d=" M 173.584 127.033 L 124.937 127.033 L 124.937 125.711 L 174.197 125.711 L 173.584 127.033" fill="rgb(39,51,112)"/><path d=" M 175.764 122.33 L 124.937 122.33 L 124.937 121.008 L 176.376 121.008 L 175.764 122.33 Z " fill="rgb(39,51,112)"/><path d=" M 177.944 117.628 L 124.937 117.628 L 124.937 116.306 L 178.556 116.306 L 177.944 117.628 Z " fill="rgb(39,51,112)"/><path d=" M 124.937 112.926 L 179.003 112.926 L 179.003 111.604 L 124.937 111.604 L 124.937 112.926 Z " fill="rgb(39,51,112)"/><path d=" M 114.264 175.577 L 87.389 175.577 L 95.864 157.148 L 114.264 157.148 C 115.034 157.148 115.657 157.772 115.657 158.541 L 115.657 174.183 C 115.657 174.953 115.034 175.577 114.264 175.577 Z " fill="rgb(241,83,89)"/><path d=" M 152.171 173.225 L 124.937 173.225 L 124.937 171.904 L 152.784 171.904 L 152.171 173.225 Z " fill="rgb(39,51,112)"/><path d=" M 154.351 168.523 L 124.937 168.523 L 124.937 167.202 L 154.964 167.202 L 154.351 168.523 Z " fill="rgb(39,51,112)"/><path d=" M 156.531 163.821 L 124.937 163.821 L 124.937 162.499 L 157.144 162.499 L 156.531 163.821 Z " fill="rgb(39,51,112)"/><path d=" M 158.711 159.118 L 124.937 159.118 L 124.937 157.797 L 159.324 157.797 L 158.711 159.118 Z " fill="rgb(39,51,112)"/><path d=" M 115.455 149.584 L 99.343 149.584 L 99.951 148.262 L 115.455 148.262 L 115.455 149.584 Z " fill="rgb(39,51,112)"/><path d=" M 115.455 144.881 L 101.506 144.881 L 102.113 143.559 L 115.455 143.559 L 115.455 144.881 Z " fill="rgb(39,51,112)"/><path d=" M 115.455 140.179 L 103.668 140.179 L 104.276 138.857 L 115.455 138.857 L 115.455 140.179" fill="rgb(39,51,112)"/><path d=" M 115.455 135.477 L 105.831 135.477 L 106.438 134.155 L 115.455 134.155 L 115.455 135.477" fill="rgb(39,51,112)"/><path d=" M 238.904 14.421 L 250.855 21.815 C 259.513 27.173 262.605 38.279 257.981 47.35 C 257.061 49.154 256.487 50.316 256.603 50.183 C 257.055 49.663 238.3 14.573 238.3 14.573" fill="rgb(74,48,48)"/><path d=" M 207.804 128.718 L 201.622 128.718 C 195.949 128.718 191.308 124.076 191.308 118.404 L 191.308 89.341 C 191.308 83.669 195.949 79.028 201.622 79.028 L 207.804 79.028 C 213.476 79.028 218.118 83.669 218.118 89.341 L 218.118 118.404 C 218.118 124.076 213.476 128.718 207.804 128.718 Z " fill="rgb(249,174,154)"/><path d=" M 256.392 50.183 C 256.669 52.524 245.701 56.481 245.572 58.951 L 247.356 63.908 C 233.889 59.025 245.77 66.466 245.77 66.485 C 241.771 78.352 243.161 84.919 231.735 89.434 C 226.042 91.683 219.794 92.714 213.29 92.254 C 210.083 92.031 207.007 92.257 204.086 92.483 C 199.05 92.873 194.469 93.263 190.457 91.351 C 189.149 90.743 187.915 89.877 186.735 88.715 C 184.505 86.486 182.515 84.035 180.837 81.381 C 180.193 80.331 179.566 79.28 178.995 78.175 C 175.549 71.522 168.501 51.989 169.072 43.973 C 170.657 21.344 192.337 6.196 217.288 7.909 C 217.933 7.953 218.56 7.964 219.205 8.001 C 232.676 8.941 244.194 16.091 251.232 26.466 C 251.601 27.019 251.969 27.59 252.32 28.161 L 252.32 28.18 C 254.346 31.478 255.434 45.594 255.434 45.594 C 255.896 47.087 256.208 48.617 256.392 50.183" fill="rgb(74,48,48)"/><path d=" M 255.387 57.425 L 255.073 63.635 L 254.539 73.936 L 253.701 77.588 C 253.627 79.21 252.806 87.739 252.511 89.287 C 249.673 103.863 240.103 106.959 225.249 108.802 C 224.808 108.876 224.346 108.913 223.904 108.93 C 222.319 109.097 220.716 109.115 219.076 109.041 C 217.491 108.967 215.943 108.765 214.413 108.47 C 211.447 107.936 208.59 106.995 205.955 105.743 L 205.918 105.725 C 199.358 102.629 193.958 97.561 190.457 91.351 C 187.786 86.652 186.201 81.308 186.035 75.65 C 186.016 75.263 186.016 74.877 186.016 74.471 C 185.998 74.029 186.016 73.55 186.053 73.07 L 186.053 72.831 L 186.09 71.706 L 186.256 68.777 L 186.753 58.659 L 186.771 58.568 L 186.771 58.549 L 186.864 56.67 L 186.937 55.213 L 187.011 53.869 L 187.03 53.518 C 187.178 51.178 187.638 48.929 188.338 46.773 C 188.78 45.244 189.351 43.77 189.997 42.351 C 190.089 42.13 190.162 41.928 190.273 41.706 C 190.789 40.545 191.397 39.384 192.06 38.297 L 192.06 38.279 C 194.567 34.096 197.921 30.484 201.901 27.701 C 202.694 27.129 203.522 26.595 204.352 26.098 C 210.139 22.707 216.957 20.882 224.125 21.251 C 230.096 21.565 234.509 23.352 239.318 26.245 C 242.229 27.996 244.864 30.152 247.131 32.64 C 250.356 36.141 252.457 40.269 254.005 44.821 C 254.097 45.079 254.171 45.336 254.245 45.594 C 254.705 47.087 255.019 48.617 255.202 50.183 C 255.479 52.524 255.516 54.955 255.387 57.425 Z " fill="rgb(250,188,168)"/><path d=" M 242.846 26.632 C 250.132 46.707 230.949 45.071 230.057 54.291 C 229.956 55.328 229.587 56.854 229.313 64.404 L 227.848 69.127 C 227.423 70.601 226.06 71.614 224.53 71.614 C 222.614 71.614 221.066 70.066 221.066 68.151 L 221.066 68.058 L 221.233 60.54 L 217.491 70.454 C 214.8 77.603 210.709 84.071 205.549 89.526 C 201.256 94.041 196.225 97.874 190.642 100.786 C 190.642 100.786 167.238 86.873 167.238 55.103 C 167.238 52.578 167.386 49.944 167.699 47.198 C 167.993 44.728 168.398 42.424 168.952 40.269 C 178.644 0.796 227.148 14.267 231.809 16.017 C 236.711 17.861 242.846 26.632 242.846 26.632" fill="rgb(74,48,48)"/><path d=" M 259.514 78.7 L 259.506 79.22 C 259.443 81.392 257.561 83.117 252.904 82.983 L 253.556 66.031 C 257.338 71.798 259.171 75.15 259.514 78.7" fill="rgb(250,188,168)"/><path d=" M 256.98 58.182 L 246.615 58.182 C 245.411 58.182 244.426 57.198 244.426 55.993 C 244.426 54.79 245.411 53.806 246.615 53.806 L 256.98 53.806 C 258.184 53.806 259.169 54.79 259.169 55.993 C 259.169 57.198 258.184 58.182 256.98 58.182 Z " fill="rgb(74,48,48)"/><path d=" M 251.156 65.987 L 251.156 65.987 C 250.296 65.987 249.592 65.283 249.592 64.423 L 249.592 62.121 C 249.592 61.262 250.296 60.557 251.156 60.557 C 252.015 60.557 252.719 61.262 252.719 62.121 L 252.719 64.423 C 252.719 65.283 252.015 65.987 251.156 65.987 Z " fill="rgb(24,29,61)"/><path d=" M 190.642 100.786 C 190.642 100.786 189.18 99.917 186.988 98.118 C 185.233 96.678 183.012 94.644 180.696 91.982 C 174.323 84.656 167.238 72.581 167.238 55.103 C 167.238 52.578 167.386 49.944 167.699 47.198 C 167.993 44.728 168.398 42.424 168.952 40.269 C 169.984 46.313 172.711 55.471 179.677 66.786 C 190.273 83.998 201.773 88.476 205.549 89.526 C 202.502 92.732 199.081 95.593 195.356 98.025 C 194.044 98.883 192.694 99.686 191.308 100.432 C 191.087 100.552 190.865 100.67 190.642 100.786 Z " fill="rgb(74,48,48)"/><path d=" M 252.82 88.231 L 252.511 100.093 C 252.511 110.205 240.535 114.269 231.646 113.308 L 217.478 111.776 L 218.904 99.498 L 222.771 76.003 L 216.524 58.455 L 229.388 63.795 L 229.387 63.815 C 228.415 77.757 238.404 89.027 252.366 88.382 L 252.82 88.231" fill="rgb(74,48,48)"/><path d=" M 220.215 58.017 C 221.646 58.025 222.8 59.194 222.791 60.626 L 222.73 69.454 L 222.669 77.164 L 219.638 77.146 C 219.416 77.142 219.194 77.138 218.986 77.106 C 213.917 76.722 209.916 72.29 209.942 67.224 C 209.95 64.594 211.07 62.358 212.848 60.618 C 214.44 59.067 216.588 58.183 218.962 58.051 L 218.976 58.05 C 219.251 58.01 219.485 58 219.763 58.015 L 220.215 58.017" fill="rgb(249,174,154)"/><path d=" M 129.201 331.217 L 210.724 331.217 L 210.724 316.184 L 129.201 316.184 L 129.201 331.217 Z " fill="rgb(24,29,61)"/><line x1="101.396" y1="456.402" x2="101.396" y2="462.168"/><path d=" M 440.923 332.486 L 515.6 332.486 L 515.6 317.454 L 440.923 317.454 L 440.923 332.486 Z " fill="rgb(107,104,129)"/><path d=" M 520.566 478.031 L 503.581 478.031 L 503.581 266.334 L 520.566 266.334 L 520.566 478.031 Z " fill="rgb(107,104,129)"/><path d=" M 452.365 478.031 L 435.38 478.031 L 435.38 265.064 L 452.365 265.064 L 452.365 478.031 Z " fill="rgb(177,170,195)"/><path d=" M 452.365 347.335 L 435.38 347.335 L 435.38 256.473 L 452.365 256.473 L 452.365 347.335 Z " fill="rgb(107,104,129)"/><path d=" M 33.602 332.486 L 108.278 332.486 L 108.278 317.454 L 33.602 317.454 L 33.602 332.486 Z " fill="rgb(107,104,129)"/><path d=" M 113.246 478.031 L 96.26 478.031 L 96.26 266.334 L 113.246 266.334 L 113.246 478.031 Z " fill="rgb(107,104,129)"/><path d=" M 45.044 478.031 L 28.059 478.031 L 28.059 265.064 L 45.044 265.064 L 45.044 478.031 Z " fill="rgb(107,104,129)"/><path d=" M 342.305 244.708 L 398.361 244.708 L 398.361 124.136 L 342.305 124.136 L 342.305 244.708 Z " fill="rgb(81,78,101)"/><path d=" M 457.98 205.107 L 273.712 205.107 L 273.712 92.563 C 273.712 88.503 277.004 85.211 281.063 85.211 L 450.628 85.211 C 454.688 85.211 457.98 88.503 457.98 92.563 L 457.98 205.107 Z " fill="rgb(223,223,221)"/><path d=" M 440.674 223.137 L 287.495 223.137 C 278.923 223.137 271.973 216.188 271.973 207.615 L 271.973 201.669 L 456.196 201.669 L 456.196 207.615 C 456.196 216.188 449.247 223.137 440.674 223.137 Z " fill="rgb(223,223,221)"/><path d=" M 451.63 92.555 L 451.63 205.111 L 267.358 205.111 L 267.358 92.555 C 267.358 88.496 270.651 85.212 274.709 85.212 L 444.279 85.212 C 448.337 85.212 451.63 88.496 451.63 92.555 Z " fill="rgb(111,112,131)"/><path d=" M 444.921 92.326 L 444.921 194.731 C 444.921 195.101 444.613 195.409 444.235 195.409 L 274.744 195.409 C 274.375 195.409 274.067 195.101 274.067 194.731 L 274.067 92.326 C 274.067 91.947 274.375 91.648 274.744 91.648 L 444.235 91.648 C 444.613 91.648 444.921 91.947 444.921 92.326" fill="rgb(35,51,102)"/><path d=" M 451.612 201.669 L 451.612 207.611 C 451.612 213.844 447.941 219.223 442.641 221.688 C 440.651 222.621 438.424 223.141 436.082 223.141 L 282.906 223.141 C 274.331 223.141 267.385 216.186 267.385 207.611 L 267.385 201.669 L 451.612 201.669 Z " fill="rgb(172,164,199)"/><path d=" M 341.208 106.277 L 283.96 106.277 L 283.96 104.295 L 341.208 104.295 L 341.208 106.277 Z " fill="rgb(111,132,202)"/><path d=" M 366.031 106.277 L 393.137 106.277 L 393.137 104.295 L 366.031 104.295 L 366.031 106.277 Z " fill="rgb(223,223,221)"/><path d=" M 405.165 106.277 L 432.271 106.277 L 432.271 104.295 L 405.165 104.295 L 405.165 106.277 Z " fill="rgb(251,192,44)"/><path d=" M 395.549 106.277 L 401.962 106.277 L 401.962 104.295 L 395.549 104.295 L 395.549 106.277 Z " fill="rgb(111,132,202)"/><path d=" M 343.892 106.277 L 362.892 106.277 L 362.892 104.295 L 343.892 104.295 L 343.892 106.277 Z " fill="rgb(235,61,60)"/><path d=" M 283.96 157.008 L 341.208 157.008 L 341.208 155.026 L 283.96 155.026 L 283.96 157.008 Z " fill="rgb(111,132,202)"/><path d=" M 366.031 157.008 L 393.137 157.008 L 393.137 155.026 L 366.031 155.026 L 366.031 157.008 Z " fill="rgb(223,223,221)"/><path d=" M 432.271 157.008 L 405.165 157.008 L 405.165 155.026 L 432.271 155.026 L 432.271 157.008 Z " fill="rgb(251,192,44)"/><path d=" M 401.962 157.008 L 395.55 157.008 L 395.55 155.026 L 401.962 155.026 L 401.962 157.008 Z " fill="rgb(111,132,202)"/><path d=" M 343.892 157.008 L 362.892 157.008 L 362.892 155.026 L 343.892 155.026 L 343.892 157.008 Z " fill="rgb(159,154,175)"/><path d=" M 375.024 140.098 L 432.271 140.098 L 432.271 138.116 L 375.024 138.116 L 375.024 140.098 Z " fill="rgb(111,132,202)"/><path d=" M 323.095 140.098 L 350.201 140.098 L 350.201 138.116 L 323.095 138.116 L 323.095 140.098 Z " fill="rgb(223,223,221)"/><path d=" M 283.96 140.098 L 311.066 140.098 L 311.066 138.116 L 283.96 138.116 L 283.96 140.098" fill="rgb(251,192,44)"/><path d=" M 314.27 140.098 L 320.683 140.098 L 320.683 138.116 L 314.27 138.116 L 314.27 140.098 Z " fill="rgb(111,132,202)"/><path d=" M 353.34 140.098 L 372.34 140.098 L 372.34 138.116 L 353.34 138.116 L 353.34 140.098 Z " fill="rgb(159,154,175)"/><path d=" M 305.428 114.732 L 283.96 114.732 L 283.96 112.75 L 305.428 112.75 L 305.428 114.732 Z " fill="rgb(235,61,60)"/><path d=" M 348.141 114.732 L 357.357 114.732 L 357.357 112.75 L 348.141 112.75 L 348.141 114.732 Z " fill="rgb(111,132,202)"/><path d=" M 387.275 114.732 L 432.271 114.732 L 432.271 112.75 L 387.275 112.75 L 387.275 114.732 Z " fill="rgb(223,223,221)"/><path d=" M 359.769 114.732 L 384.072 114.732 L 384.072 112.75 L 359.769 112.75 L 359.769 114.732 Z " fill="rgb(111,132,202)"/><path d=" M 345.001 114.732 L 308.112 114.732 L 308.112 112.75 L 345.001 112.75 L 345.001 114.732 Z " fill="rgb(111,132,202)"/><path d=" M 305.428 165.464 L 283.96 165.464 L 283.96 163.481 L 305.428 163.481 L 305.428 165.464 Z " fill="rgb(111,132,202)"/><path d=" M 348.141 165.464 L 357.357 165.464 L 357.357 163.481 L 348.141 163.481 L 348.141 165.464 Z " fill="rgb(111,132,202)"/><path d=" M 432.271 165.464 L 387.275 165.464 L 387.275 163.481 L 432.271 163.481 L 432.271 165.464 Z " fill="rgb(111,132,202)"/><path d=" M 359.769 165.464 L 384.072 165.464 L 384.072 163.481 L 359.769 163.481 L 359.769 165.464 Z " fill="rgb(111,132,202)"/><path d=" M 308.112 165.464 L 345.001 165.464 L 345.001 163.481 L 308.112 163.481 L 308.112 165.464 Z " fill="rgb(111,132,202)"/><path d=" M 305.428 148.553 L 283.96 148.553 L 283.96 146.571 L 305.428 146.571 L 305.428 148.553 Z " fill="rgb(235,61,60)"/><path d=" M 348.141 148.553 L 357.357 148.553 L 357.357 146.571 L 348.141 146.571 L 348.141 148.553 Z " fill="rgb(111,132,202)"/><path d=" M 432.271 148.553 L 387.275 148.553 L 387.275 146.571 L 432.271 146.571 L 432.271 148.553 Z " fill="rgb(223,223,221)"/><path d=" M 359.769 148.553 L 384.072 148.553 L 384.072 146.571 L 359.769 146.571 L 359.769 148.553 Z " fill="rgb(111,132,202)"/><path d=" M 308.112 148.553 L 345.001 148.553 L 345.001 146.571 L 308.112 146.571 L 308.112 148.553 Z " fill="rgb(111,132,202)"/><path d=" M 305.428 123.187 L 283.96 123.187 L 283.96 121.206 L 305.428 121.206 L 305.428 123.187 Z " fill="rgb(223,223,221)"/><path d=" M 308.112 123.187 L 345.001 123.187 L 345.001 121.206 L 308.112 121.206 L 308.112 123.187 Z " fill="rgb(111,132,202)"/><path d=" M 323.533 131.642 L 345.001 131.642 L 345.001 129.661 L 323.533 129.661 L 323.533 131.642 Z " fill="rgb(223,223,221)"/><path d=" M 283.96 131.642 L 320.85 131.642 L 320.85 129.661 L 283.96 129.661 L 283.96 131.642" fill="rgb(111,132,202)"/><path d=" M 397.066 247.886 L 321.927 247.886 C 319.622 247.886 317.753 246.017 317.753 243.711 L 317.753 243.711 C 317.753 241.405 319.622 239.536 321.927 239.536 L 397.066 239.536 C 399.371 239.536 401.241 241.405 401.241 243.711 L 401.241 243.711 C 401.241 246.017 399.371 247.886 397.066 247.886" fill="rgb(67,65,93)"/><path d=" M 535.085 266.171 L 298.168 266.171 L 298.168 253.924 C 298.168 250.218 301.172 247.212 304.879 247.212 L 528.373 247.212 C 532.079 247.212 535.085 250.218 535.085 253.924 L 535.085 266.171 Z " fill="rgb(232,130,98)"/><path d=" M 466.024 253.928 L 466.024 266.174 L 9.892 266.174 L 9.892 253.928 C 9.892 250.221 12.894 247.21 16.6 247.21 L 459.315 247.21 C 463.022 247.21 466.024 250.221 466.024 253.928 Z " fill="rgb(164,57,55)"/><path d=" M 334.047 247.21 C 330.428 253.109 326.114 260.143 322.426 266.174 L 210.829 266.174 L 212.352 247.21 L 334.047 247.21 Z " fill="rgb(129,42,44)"/><path d=" M 249.987 487.012 L 304.739 487.595 C 308.004 487.629 310.679 485.011 310.713 481.745 C 310.74 479.231 309.173 476.975 306.809 476.122 L 279.819 466.384 L 250.201 466.79 L 249.987 487.012" fill="rgb(157,67,51)"/><path d=" M 305.82 489.127 L 250.39 488.948 L 250.402 484.976 L 309.805 485.167 C 309.798 487.361 308.013 489.134 305.82 489.127" fill="rgb(24,29,61)"/><line x1="279.123" y1="474.388" x2="285.576" y2="467.537" vector-effect="non-scaling-stroke" stroke-width="1.315" stroke="rgb(24,29,61)" stroke-linejoin="miter" stroke-linecap="round" stroke-miterlimit="10"/><line x1="283.828" y1="476.391" x2="290.28" y2="469.539" vector-effect="non-scaling-stroke" stroke-width="1.315" stroke="rgb(24,29,61)" stroke-linejoin="miter" stroke-linecap="round" stroke-miterlimit="10"/><line x1="288.33" y1="479.065" x2="295.594" y2="471.295" vector-effect="non-scaling-stroke" stroke-width="1.315" stroke="rgb(24,29,61)" stroke-linejoin="miter" stroke-linecap="round" stroke-miterlimit="10"/><path d=" M 248.121 469.024 C 251.298 415.615 250.441 366.237 246.28 356.237 C 242.014 350.027 208.751 336.57 175.508 335.118 L 191.065 301.155 C 234.668 303.347 265.836 319.706 276.738 338.405 C 281.34 346.297 285.337 362.216 283.181 416.675 C 282.052 445.199 280.659 467.545 280.659 467.545 L 248.121 469.024" fill="rgb(28,28,39)"/><path d=" M 298.74 488.374 L 353.494 488.752 C 356.759 488.775 359.424 486.146 359.446 482.881 C 359.464 480.367 357.889 478.117 355.521 477.272 L 328.496 467.635 L 298.879 468.152 L 298.74 488.374" fill="rgb(157,67,51)"/><path d=" M 354.581 490.281 L 298.27 490.308 L 298.267 486.336 L 358.551 486.307 C 358.552 488.501 356.774 490.28 354.581 490.281" fill="rgb(24,29,61)"/><line x1="327.829" y1="475.642" x2="334.256" y2="468.766" vector-effect="non-scaling-stroke" stroke-width="1.315" stroke="rgb(24,29,61)" stroke-linejoin="miter" stroke-linecap="round" stroke-miterlimit="10"/><line x1="332.542" y1="477.626" x2="338.969" y2="470.75" vector-effect="non-scaling-stroke" stroke-width="1.315" stroke="rgb(24,29,61)" stroke-linejoin="miter" stroke-linecap="round" stroke-miterlimit="10"/><line x1="337.055" y1="480.284" x2="344.289" y2="472.487" vector-effect="non-scaling-stroke" stroke-width="1.315" stroke="rgb(24,29,61)" stroke-linejoin="miter" stroke-linecap="round" stroke-miterlimit="10"/><path d=" M 296.764 469.024 C 299.941 415.615 299.083 366.237 294.924 356.237 C 290.656 350.027 257.395 336.57 224.151 335.118 L 239.707 301.155 C 283.311 303.347 314.479 319.706 325.38 338.405 C 329.983 346.297 333.98 362.216 331.824 416.675 C 330.694 445.199 329.302 467.545 329.302 467.545 L 296.764 469.024" fill="rgb(28,28,39)"/><path d=" M 249.908 310.928 C 249.908 316.909 247.779 322.391 244.243 326.664 C 239.72 332.146 232.858 335.643 225.18 335.643 L 183.623 335.643 C 182.388 335.643 181.178 335.552 179.995 335.367 C 176.944 334.933 174.079 333.921 171.502 332.462 C 171.041 332.213 170.595 331.936 170.16 331.646 C 163.39 327.243 158.907 319.604 158.907 310.928 L 159.67 297.741 L 249.186 296.966 L 249.908 310.928" fill="rgb(28,28,39)"/><path d=" M 278.458 240.499 L 299.878 237.076 C 301.443 236.826 302.518 235.341 302.268 233.777 C 302.018 232.212 300.533 231.137 298.969 231.387 L 277.548 234.811 C 275.985 235.061 274.909 236.546 275.159 238.11 C 275.409 239.674 276.893 240.749 278.458 240.499 Z " fill="rgb(249,174,154)"/><path d=" M 285.278 246.29 L 302.477 243.542 C 304.042 243.292 305.117 241.808 304.867 240.243 C 304.617 238.679 303.132 237.604 301.568 237.853 L 284.369 240.602 C 282.805 240.852 281.729 242.337 281.979 243.901 C 282.229 245.465 283.714 246.54 285.278 246.29 Z " fill="rgb(249,174,154)"/><path d=" M 281.302 253.801 L 301.659 250.547 C 303.223 250.297 304.299 248.813 304.048 247.248 C 303.799 245.684 302.313 244.609 300.749 244.859 L 280.392 248.113 C 278.829 248.363 277.753 249.847 278.003 251.412 C 278.254 252.976 279.738 254.051 281.302 253.801" fill="rgb(249,174,154)"/><path d=" M 287.704 234.961 C 287.475 234.988 284.847 234.952 282.001 234.904 C 277.085 234.823 272.219 235.913 267.806 238.083 L 259.358 242.239 C 259.358 242.239 264.197 256.597 264.864 256.718 C 281.152 259.662 286.74 252.266 286.74 252.266 L 287.704 234.961 Z " fill="rgb(249,174,154)"/><path d=" M 275.093 258.404 L 267.863 258.404 L 267.863 234.904 L 275.093 234.904 L 275.093 258.404 Z " fill="rgb(255,255,255)"/><path d=" M 220.48 260.954 C 203.432 260.954 187.846 251.003 180.684 235.506 L 180.33 234.741 L 158.017 166.602 L 185.504 157.601 L 207.248 224.002 C 209.828 228.957 215.017 232.093 220.627 232.03 L 268.026 231.561 L 268.313 260.483 L 220.913 260.952 C 220.769 260.953 220.623 260.954 220.48 260.954" fill="rgb(28,28,39)"/><path d=" M 375.138 232.859 C 373.366 229.701 370.705 227.115 367.456 225.514 L 367.379 225.477 C 362.962 223.318 358.092 222.244 353.177 222.34 L 343.763 222.522 C 343.763 222.522 341.378 242.946 341.501 242.279 C 341.744 240.954 364.515 241.294 374.949 241.521 C 377.209 241.569 378.662 239.143 377.557 237.171 L 375.138 232.859" fill="rgb(249,174,154)"/><path d=" M 347.05 245.054 L 338.066 245.054 L 338.066 220.984 L 347.05 220.984 L 347.05 245.054 Z " fill="rgb(255,255,255)"/><path d=" M 294.101 247.807 C 277.055 247.807 261.468 237.856 254.306 222.359 L 222.175 152.831 L 248.43 140.698 L 280.56 210.226 C 283.018 215.543 288.336 218.955 294.248 218.884 L 341.648 218.415 L 341.934 247.336 L 294.534 247.806 C 294.391 247.806 294.246 247.807 294.101 247.807" fill="rgb(35,35,52)"/><path d=" M 257.574 166.432 L 257.038 227.144 L 256.36 304.445 C 256.36 304.445 254.691 306.309 249.725 308.92 C 245.416 311.193 238.638 314.03 228.313 316.709 C 216.282 319.834 199.338 320.317 184.862 319.962 C 168.891 319.57 155.933 318.166 155.933 318.166 L 156.265 166.432 C 156.265 145.081 171.722 127.322 192.063 123.744 C 194.508 123.321 197.021 123.103 199.595 123.103 L 214.245 123.103 C 238.17 123.103 257.574 142.507 257.574 166.432" fill="rgb(35,35,52)"/><path d=" M 204.61 365.649 L 204.61 449.609 L 189.984 449.609 L 189.984 365.649 L 204.61 365.649 Z " fill="rgb(177,170,195)"/><path d=" M 189.984 370.383 L 189.984 388.76 L 204.61 383.425 L 204.61 370.983 C 200.95 370.821 193.905 370.545 189.984 370.383" fill="rgb(107,104,129)"/><path d=" M 242.293 372.905 L 154.718 372.905 C 150.23 372.905 146.557 369.232 146.557 364.744 C 146.557 360.255 150.23 356.583 154.718 356.583 L 242.293 356.583 C 246.782 356.583 250.454 360.255 250.454 364.744 C 250.454 369.232 246.782 372.905 242.293 372.905 Z " fill="rgb(41,41,53)"/><path d=" M 259.286 476.719 L 250.136 476.719 C 250.136 466.415 241.243 458.032 230.313 458.032 L 163.65 458.032 C 152.718 458.032 143.825 466.415 143.825 476.719 L 134.676 476.719 C 134.676 461.66 147.674 449.408 163.65 449.408 L 230.313 449.408 C 246.289 449.408 259.286 461.66 259.286 476.719" fill="rgb(41,41,53)"/><path d=" M 207.874 449.613 L 186.524 449.613 L 186.524 436.47 L 207.874 436.47 L 207.874 449.613 Z " fill="rgb(41,41,53)"/><path d=" M 146.502 485.059 C 146.502 489.016 143.099 492.223 138.901 492.223 C 134.704 492.223 131.301 489.016 131.301 485.059 C 131.301 481.102 134.704 477.895 138.901 477.895 C 143.099 477.895 146.502 481.102 146.502 485.059 Z " fill="rgb(24,29,61)"/><path d=" M 149.862 484.427 L 129.061 484.427 L 129.061 482.532 C 129.061 477.17 133.409 472.823 138.772 472.823 L 140.152 472.823 C 145.515 472.823 149.862 477.17 149.862 482.532 L 149.862 484.427" fill="rgb(28,37,74)"/><path d=" M 262.741 485.059 C 262.741 489.016 259.338 492.223 255.14 492.223 C 250.943 492.223 247.54 489.016 247.54 485.059 C 247.54 481.102 250.943 477.895 255.14 477.895 C 259.338 477.895 262.741 481.102 262.741 485.059 Z " fill="rgb(24,29,61)"/><path d=" M 266.101 484.427 L 245.3 484.427 L 245.3 482.532 C 245.3 477.17 249.648 472.823 255.011 472.823 L 256.391 472.823 C 261.754 472.823 266.101 477.17 266.101 482.532 L 266.101 484.427 Z " fill="rgb(28,37,74)"/><path d=" M 203.685 477.951 L 191.574 477.951 L 191.574 452.078 L 203.685 452.078 L 203.685 477.951 Z " fill="rgb(41,41,53)"/><path d=" M 205.485 485.059 C 205.485 489.016 202.083 492.223 197.885 492.223 C 193.687 492.223 190.285 489.016 190.285 485.059 C 190.285 481.102 193.687 477.895 197.885 477.895 C 202.083 477.895 205.485 481.102 205.485 485.059 Z " fill="rgb(24,29,61)"/><path d=" M 208.845 484.427 L 188.045 484.427 L 188.045 482.532 C 188.045 477.17 192.392 472.823 197.755 472.823 L 199.135 472.823 C 204.497 472.823 208.845 477.17 208.845 482.532 L 208.845 484.427 Z " fill="rgb(28,37,74)"/><path d=" M 80.839 207.67 L 100.426 349.067 C 101.617 357.666 108.836 364.154 117.512 364.424 L 188.993 365.243 L 149.246 187.445 L 98.507 187.417 C 87.689 187.4 79.355 196.953 80.839 207.67" fill="rgb(158,31,56)"/><path d=" M 273.405 365.243 L 174.036 365.243 C 165.564 365.243 158.632 358.311 158.632 349.839 C 158.632 341.368 165.564 334.435 174.036 334.435 L 273.405 334.435 C 281.877 334.435 288.808 341.368 288.808 349.839 C 288.808 358.311 281.877 365.243 273.405 365.243 Z " fill="rgb(239,49,64)"/><path d=" M 179.677 161.866 C 177.752 189.739 183.179 290.271 184.862 319.962 C 168.891 319.57 155.933 318.166 155.933 318.166 L 156.265 166.432 C 156.265 145.081 171.722 127.322 192.063 123.744 C 192.063 123.744 181.941 129.035 179.677 161.866" fill="rgb(28,28,39)"/><path d=" M 229.497 125.729 L 184.797 125.729 L 184.797 113.24 L 229.497 118.522 L 229.497 125.729 Z " fill="rgb(255,255,255)"/><path d=" M 157.344 345.785 L 136.58 200.776 C 135.655 194.316 140.505 188.317 147.358 187.445 C 154.213 186.573 160.577 191.145 161.502 197.606 L 182.265 342.615 C 183.191 349.075 178.34 355.074 171.486 355.946 C 164.633 356.818 161.086 361.663 157.344 345.785" fill="rgb(239,49,64)"/><path d=" M 257.038 227.144 L 256.36 304.445 C 256.36 304.445 254.691 306.309 249.725 308.92 L 239.431 192.418 C 239.431 192.418 248.864 215.997 257.038 227.144 Z " fill="rgb(28,28,39)"/><g id="g336"><clipPath id="_clipPath_sFcsciR56BfjKgnuZZkfOV8PJazyWtkD"><path d=" M 388.94 223.141 L 387.662 223.141 C 388.065 222.724 388.491 222.283 388.94 221.818 L 388.94 223.141 Z " fill="rgb(255,255,255)"/></clipPath><g clip-path="url(#_clipPath_sFcsciR56BfjKgnuZZkfOV8PJazyWtkD)"><g id="g338"><path d=" M 387.662 223.141 L 388.94 223.141 L 388.94 221.818 L 387.662 221.818 L 387.662 223.141 Z " fill="rgb(119,116,148)"/></g></g></g><path d=" M 432.041 201.669 L 408.271 201.669 C 410.227 199.613 412.217 197.515 414.206 195.409 L 433.777 195.409 L 432.041 201.669 Z " fill="rgb(78,78,96)"/><path d=" M 433.777 195.409 L 414.206 195.409 C 425.37 183.591 436.545 171.495 441.954 164.86 L 442.188 165.064 L 433.777 195.409" fill="rgb(27,39,73)"/><path d=" M 426.09 223.141 L 420.627 223.141 L 420.627 209.904 C 420.627 208.234 419.267 206.874 417.597 206.874 L 403.309 206.874 C 404.925 205.183 406.586 203.442 408.271 201.669 L 408.271 201.669 L 432.041 201.669 L 426.09 223.141" fill="rgb(119,116,148)"/><path d=" M 424.733 247.002 L 520.571 247.002 C 521.104 246.236 521.526 245.37 521.781 244.437 L 543.223 167.032 C 544.256 163.345 541.48 159.691 537.649 159.691 L 453.325 159.691 C 450.727 159.691 448.451 161.435 447.752 163.934 L 424.733 247.002" fill="rgb(223,223,221)"/><path d=" M 538.646 164.27 L 517.218 241.602 C 516.223 245.203 512.948 247.695 509.206 247.695 L 419.285 247.695 L 443.266 161.171 C 443.962 158.671 446.233 156.937 448.83 156.937 L 533.073 156.937 C 536.903 156.937 539.667 160.581 538.646 164.27" fill="rgb(159,154,175)"/><path d=" M 533.912 167.675 L 516.401 230.733 L 512.727 243.941 L 423.518 243.941 L 427.181 230.733 L 445.497 164.805 C 446.137 162.488 448.256 160.889 450.661 160.889 L 528.747 160.889 C 532.29 160.889 534.861 164.266 533.912 167.675" fill="rgb(35,51,102)"/><path d=" M 481.363 169.466 L 453.905 169.466 L 454.517 167.535 L 481.974 167.535 L 481.363 169.466 Z " fill="rgb(239,241,242)"/><path d=" M 506.268 169.466 L 493.267 169.466 L 493.879 167.535 L 506.88 167.535 L 506.268 169.466 Z " fill="rgb(235,61,60)"/><path d=" M 525.038 169.466 L 512.037 169.466 L 512.649 167.535 L 525.649 167.535 L 525.038 169.466 Z " fill="rgb(159,154,175)"/><path d=" M 510.501 169.466 L 507.425 169.466 L 508.036 167.535 L 511.112 167.535 L 510.501 169.466 Z " fill="rgb(111,132,202)"/><path d=" M 491.762 169.466 L 482.65 169.466 L 483.261 167.535 L 492.373 167.535 L 491.762 169.466 Z " fill="rgb(159,154,175)"/><path d=" M 462.242 202.412 L 475.242 202.412 L 475.854 200.481 L 462.854 200.481 L 462.242 202.412 Z " fill="rgb(223,223,221)"/><path d=" M 443.473 202.412 L 456.474 202.412 L 457.085 200.481 L 444.084 200.481 L 443.473 202.412 Z " fill="rgb(251,192,44)"/><path d=" M 458.01 202.412 L 461.085 202.412 L 461.697 200.481 L 458.622 200.481 L 458.01 202.412 Z " fill="rgb(111,132,202)"/><path d=" M 461.594 177.702 L 451.297 177.702 L 451.908 175.771 L 462.205 175.771 L 461.594 177.702 Z " fill="rgb(235,61,60)"/><path d=" M 486.5 177.702 L 482.079 177.702 L 482.69 175.771 L 487.111 175.771 L 486.5 177.702 Z " fill="rgb(111,132,202)"/><path d=" M 522.43 177.702 L 500.848 177.702 L 501.46 175.771 L 523.041 175.771 L 522.43 177.702 Z " fill="rgb(235,61,60)"/><path d=" M 499.312 177.702 L 487.656 177.702 L 488.268 175.771 L 499.924 175.771 L 499.312 177.702 Z " fill="rgb(111,132,202)"/><path d=" M 480.574 177.702 L 462.881 177.702 L 463.492 175.771 L 481.185 175.771 L 480.574 177.702 Z " fill="rgb(111,132,202)"/><path d=" M 445.945 227.121 L 435.648 227.121 L 436.26 225.19 L 446.556 225.19 L 445.945 227.121 Z " fill="rgb(47,57,110)"/><path d=" M 458.985 185.939 L 448.688 185.939 L 449.3 184.008 L 459.597 184.008 L 458.985 185.939 Z " fill="rgb(223,223,221)"/><path d=" M 475.79 185.939 L 465.493 185.939 L 466.104 184.008 L 476.401 184.008 L 475.79 185.939 Z " fill="rgb(223,223,221)"/><path d=" M 516.963 185.939 L 499.27 185.939 L 499.881 184.008 L 517.575 184.008 L 516.963 185.939" fill="rgb(111,132,202)"/><path d=" M 446.081 194.175 L 463.774 194.175 L 464.386 192.244 L 446.692 192.244 L 446.081 194.175" fill="rgb(111,132,202)"/><path d=" M 517.567 230.733 L 513.8 243.941 L 422.352 243.941 L 426.108 230.733 L 517.567 230.733 Z " fill="rgb(159,154,175)"/><path d=" M 468.318 247.903 L 358.774 247.903 C 356.214 247.903 354.118 245.809 354.118 243.248 C 354.118 240.688 356.214 238.592 358.774 238.592 L 468.318 238.592 C 470.879 238.592 472.974 240.688 472.974 243.248 C 472.974 245.809 470.879 247.903 468.318 247.903 Z " fill="rgb(159,154,175)"/><path d=" M 509.585 160.889 L 475.136 160.889 L 476.941 156.937 L 511.39 156.937 L 509.585 160.889 Z " fill="rgb(195,193,221)"/><path d=" M 477.696 230.733 L 443.247 230.733 L 443.249 230.73 L 444.896 227.121 L 445.945 227.121 L 446.556 225.19 L 445.778 225.19 L 456.178 202.412 L 456.474 202.412 L 457.085 200.481 L 457.059 200.481 L 459.939 194.175 L 463.774 194.175 L 464.386 192.244 L 460.82 192.244 L 467.46 177.702 L 480.574 177.702 L 481.185 175.771 L 468.341 175.771 L 471.22 169.466 L 481.363 169.466 L 481.974 167.535 L 472.101 167.535 L 475.136 160.889 L 475.136 160.889 L 509.585 160.889 L 509.585 160.889 L 506.55 167.535 L 493.879 167.535 L 493.267 169.466 L 505.669 169.466 L 502.79 175.771 L 501.46 175.771 L 500.848 177.702 L 501.909 177.702 L 477.698 230.73 L 477.696 230.733 Z  M 462.854 200.481 L 462.242 202.412 L 475.242 202.412 L 475.854 200.481 L 462.854 200.481 Z  M 458.622 200.481 L 458.01 202.412 L 461.085 202.412 L 461.697 200.481 L 458.622 200.481 Z  M 466.104 184.008 L 465.493 185.939 L 475.79 185.939 L 476.401 184.008 L 466.104 184.008 Z  M 488.268 175.771 L 487.656 177.702 L 499.312 177.702 L 499.924 175.771 L 488.268 175.771 Z  M 482.69 175.771 L 482.079 177.702 L 486.5 177.702 L 487.111 175.771 L 482.69 175.771 Z  M 483.261 167.535 L 482.65 169.466 L 491.762 169.466 L 492.373 167.535 L 483.261 167.535 Z " fill="rgb(48,68,160)"/><path d=" M 481.363 169.466 L 471.22 169.466 L 472.101 167.535 L 481.974 167.535 L 481.363 169.466" fill="rgb(246,248,251)"/><path d=" M 505.669 169.466 L 493.267 169.466 L 493.879 167.535 L 506.55 167.535 L 505.669 169.466 Z " fill="rgb(242,88,92)"/><path d=" M 491.762 169.466 L 482.65 169.466 L 483.261 167.535 L 492.373 167.535 L 491.762 169.466 Z " fill="rgb(195,193,221)"/><path d=" M 475.242 202.412 L 462.242 202.412 L 462.854 200.481 L 475.854 200.481 L 475.242 202.412 Z " fill="rgb(236,236,241)"/><path d=" M 456.474 202.412 L 456.178 202.412 L 457.059 200.481 L 457.085 200.481 L 456.474 202.412" fill="rgb(251,218,73)"/><path d=" M 461.085 202.412 L 458.01 202.412 L 458.622 200.481 L 461.697 200.481 L 461.085 202.412 Z " fill="rgb(152,181,227)"/><path d=" M 486.5 177.702 L 482.079 177.702 L 482.69 175.771 L 487.111 175.771 L 486.5 177.702 Z " fill="rgb(152,181,227)"/><path d=" M 501.909 177.702 L 500.848 177.702 L 501.46 175.771 L 502.79 175.771 L 501.909 177.702" fill="rgb(242,88,92)"/><path d=" M 499.312 177.702 L 487.656 177.702 L 488.268 175.771 L 499.924 175.771 L 499.312 177.702 Z " fill="rgb(152,181,227)"/><path d=" M 480.574 177.702 L 467.46 177.702 L 468.341 175.771 L 481.185 175.771 L 480.574 177.702" fill="rgb(152,181,227)"/><path d=" M 445.945 227.121 L 444.896 227.121 L 445.778 225.19 L 446.556 225.19 L 445.945 227.121" fill="rgb(66,76,168)"/><path d=" M 475.79 185.939 L 465.493 185.939 L 466.104 184.008 L 476.401 184.008 L 475.79 185.939 Z " fill="rgb(236,236,241)"/><path d=" M 463.774 194.175 L 459.939 194.175 L 460.82 192.244 L 464.386 192.244 L 463.774 194.175 Z " fill="rgb(152,181,227)"/><path d=" M 474.405 237.931 L 439.956 237.931 L 443.247 230.733 L 477.696 230.733 L 474.405 237.931 Z " fill="rgb(195,193,221)"/><path d=" M 362.677 195.409 L 312.002 195.409 L 325.679 165.464 L 345.001 165.464 L 345.001 163.481 L 326.585 163.481 L 329.541 157.008 L 341.208 157.008 L 341.208 155.026 L 330.446 155.026 L 333.402 148.553 L 345.001 148.553 L 345.001 146.571 L 334.307 146.571 L 337.264 140.098 L 350.201 140.098 L 350.201 138.116 L 338.169 138.116 L 341.126 131.642 L 345.001 131.642 L 345.001 129.661 L 342.031 129.661 L 344.988 123.187 L 345.001 123.187 L 345.001 123.157 L 348.849 114.732 L 357.357 114.732 L 357.357 112.75 L 349.754 112.75 L 352.711 106.277 L 362.891 106.277 L 362.891 104.295 L 353.617 104.295 L 359.393 91.648 L 410.067 91.648 L 400.43 112.75 L 387.275 112.75 L 387.275 114.732 L 399.524 114.732 L 388.844 138.116 L 375.024 138.116 L 375.024 140.098 L 387.939 140.098 L 381.12 155.026 L 366.031 155.026 L 366.031 157.008 L 380.215 157.008 L 377.259 163.481 L 359.769 163.481 L 359.769 165.464 L 376.353 165.464 L 362.677 195.409 Z  M 348.141 163.481 L 348.141 165.464 L 357.357 165.464 L 357.357 163.481 L 348.141 163.481 Z  M 343.892 155.026 L 343.892 157.008 L 362.891 157.008 L 362.891 155.026 L 343.892 155.026 Z  M 359.769 146.571 L 359.769 148.553 L 384.071 148.553 L 384.071 146.571 L 359.769 146.571 Z  M 348.141 146.571 L 348.141 148.553 L 357.357 148.553 L 357.357 146.571 L 348.141 146.571 Z  M 353.34 138.116 L 353.34 140.098 L 372.339 140.098 L 372.339 138.116 L 353.34 138.116 Z  M 359.769 112.75 L 359.769 114.732 L 384.071 114.732 L 384.071 112.75 L 359.769 112.75 Z  M 395.549 104.295 L 395.549 106.277 L 401.962 106.277 L 401.962 104.295 L 395.549 104.295 Z  M 366.031 104.295 L 366.031 106.277 L 393.137 106.277 L 393.137 104.295 L 366.031 104.295" fill="rgb(48,68,160)"/><path d=" M 366.031 106.277 L 393.137 106.277 L 393.137 104.295 L 366.031 104.295 L 366.031 106.277 Z " fill="rgb(236,236,241)"/><path d=" M 395.549 106.277 L 401.962 106.277 L 401.962 104.295 L 395.549 104.295 L 395.549 106.277 Z " fill="rgb(152,181,227)"/><path d=" M 362.891 106.277 L 352.711 106.277 L 353.617 104.295 L 362.891 104.295 L 362.891 106.277" fill="rgb(242,88,92)"/><path d=" M 341.208 157.008 L 329.541 157.008 L 330.446 155.026 L 341.208 155.026 L 341.208 157.008" fill="rgb(152,181,227)"/><path d=" M 380.215 157.008 L 366.031 157.008 L 366.031 155.026 L 381.12 155.026 L 380.215 157.008 Z " fill="rgb(236,236,241)"/><path d=" M 343.892 157.008 L 362.892 157.008 L 362.892 155.026 L 343.892 155.026 L 343.892 157.008 Z " fill="rgb(195,193,221)"/><path d=" M 387.939 140.098 L 375.024 140.098 L 375.024 138.116 L 388.844 138.116 L 387.939 140.098 Z " fill="rgb(152,181,227)"/><path d=" M 350.201 140.098 L 337.264 140.098 L 338.169 138.116 L 350.201 138.116 L 350.201 140.098 Z " fill="rgb(236,236,241)"/><path d=" M 353.34 140.098 L 372.34 140.098 L 372.34 138.116 L 353.34 138.116 L 353.34 140.098 Z " fill="rgb(195,193,221)"/><path d=" M 357.357 114.732 L 348.849 114.732 L 349.754 112.75 L 357.357 112.75 L 357.357 114.732" fill="rgb(152,181,227)"/><path d=" M 399.524 114.732 L 387.275 114.732 L 387.275 112.75 L 400.43 112.75 L 399.524 114.732 Z " fill="rgb(236,236,241)"/><path d=" M 359.769 114.732 L 384.072 114.732 L 384.072 112.75 L 359.769 112.75 L 359.769 114.732 Z " fill="rgb(152,181,227)"/><path d=" M 348.141 165.464 L 357.357 165.464 L 357.357 163.481 L 348.141 163.481 L 348.141 165.464 Z " fill="rgb(152,181,227)"/><path d=" M 376.353 165.464 L 359.769 165.464 L 359.769 163.481 L 377.259 163.481 L 376.353 165.464 Z " fill="rgb(152,181,227)"/><path d=" M 345.001 165.464 L 325.679 165.464 L 326.585 163.481 L 345.001 163.481 L 345.001 165.464 Z " fill="rgb(152,181,227)"/><path d=" M 348.141 148.553 L 357.357 148.553 L 357.357 146.571 L 348.141 146.571 L 348.141 148.553 Z " fill="rgb(152,181,227)"/><path d=" M 359.769 148.553 L 384.072 148.553 L 384.072 146.571 L 359.769 146.571 L 359.769 148.553 Z " fill="rgb(152,181,227)"/><path d=" M 345.001 148.553 L 333.402 148.553 L 334.307 146.571 L 345.001 146.571 L 345.001 148.553 Z " fill="rgb(152,181,227)"/><path d=" M 345.001 123.187 L 344.988 123.187 L 345.001 123.157 L 345.001 123.187 Z " fill="rgb(152,181,227)"/><path d=" M 345.001 131.642 L 341.126 131.642 L 342.031 129.661 L 345.001 129.661 L 345.001 131.642" fill="rgb(236,236,241)"/><path d=" M 509.846 247.615 L 446.443 247.615 C 443.882 247.615 441.788 245.52 441.788 242.96 C 441.788 240.399 443.882 238.305 446.443 238.305 L 509.846 238.305 C 512.407 238.305 514.502 240.399 514.502 242.96 C 514.502 245.52 512.407 247.615 509.846 247.615 Z " fill="rgb(223,223,221)"/><path d=" M 487.061 244.106 L 478.007 244.106 L 478.007 241.39 L 487.061 241.39 L 487.061 244.106 Z " fill="rgb(24,29,61)"/><path d=" M 475.29 244.106 L 468.726 244.106 L 468.726 241.39 L 475.29 241.39 L 475.29 244.106 Z " fill="rgb(24,29,61)"/><path d=" M 420.627 209.904 L 420.627 247.835 L 388.94 247.835 L 388.94 209.904 C 388.94 208.234 390.3 206.874 391.97 206.874 L 417.597 206.874 C 419.267 206.874 420.627 208.234 420.627 209.904 Z " fill="rgb(240,57,63)"/><path d=" M 389.331 241.344 C 388.917 241.107 379.191 235.409 378.323 225.43 C 377.992 221.625 379.431 219.267 380.697 217.96 C 384.179 214.364 389.965 214.571 390.613 214.606 L 390.36 219.236 C 389.185 219.181 385.726 219.42 384.019 221.195 C 383.149 222.1 382.797 223.354 382.942 225.028 C 383.602 232.622 391.561 237.277 391.641 237.323 L 389.331 241.344" fill="rgb(235,61,60)"/><path d=" M 405.819 247.835 L 388.94 247.835 L 388.94 209.904 C 388.94 208.234 390.3 206.874 391.97 206.874 L 392.991 206.874 C 393.036 208.853 393.578 223.984 397.828 234.882 C 401.522 244.372 404.815 247.17 405.819 247.835" fill="rgb(235,61,60)"/><path d=" M 405.819 247.836 L 388.94 247.836 L 388.94 247.835 L 405.817 247.835 C 405.818 247.835 405.818 247.835 405.819 247.836 Z " fill="rgb(199,51,65)"/><path d=" M 384.976 238.009 C 382.11 235.317 378.805 231.049 378.321 225.424 C 378.3 225.174 378.286 224.931 378.279 224.694 C 378.286 224.932 378.301 225.178 378.323 225.43 C 378.811 231.052 382.113 235.315 384.976 238.009 M 388.94 235.34 C 386.54 233.285 383.349 229.717 382.942 225.028 C 382.881 224.327 382.908 223.7 383.023 223.141 L 383.024 223.141 C 382.91 223.698 382.885 224.323 382.943 225.021 C 383.36 229.721 386.544 233.291 388.94 235.331 L 388.94 235.34 Z " fill="rgb(181,41,51)"/><path d=" M 383.024 223.141 L 383.023 223.141 C 383.082 222.852 383.166 222.582 383.272 222.329 C 383.166 222.583 383.083 222.853 383.024 223.141 Z " fill="rgb(201,52,69)"/><path d=" M 378.279 224.689 C 378.279 224.686 378.279 224.682 378.279 224.68 C 378.279 224.683 378.279 224.686 378.279 224.689 Z " fill="rgb(181,41,51)"/><path d=" M 384.107 221.107 C 385.351 219.891 387.435 219.429 388.94 219.285 L 388.94 219.287 C 387.442 219.423 385.354 219.899 384.107 221.107 Z  M 385.906 215.107 C 387.041 214.813 388.105 214.68 388.94 214.619 L 388.94 214.629 C 388.106 214.684 387.042 214.815 385.906 215.107 Z " fill="rgb(201,52,69)"/><path d=" M 388.94 241.097 C 388.236 240.659 386.683 239.614 384.976 238.009 C 382.113 235.315 378.811 231.052 378.323 225.43 C 378.301 225.178 378.286 224.932 378.279 224.694 C 378.279 224.692 378.279 224.69 378.279 224.689 C 378.279 224.686 378.279 224.683 378.279 224.68 C 378.188 221.311 379.519 219.184 380.701 217.958 C 382.207 216.406 384.142 215.563 385.906 215.107 C 387.042 214.815 388.106 214.684 388.94 214.629 L 388.94 214.629 L 388.94 219.285 L 388.94 219.285 C 387.435 219.429 385.351 219.891 384.107 221.107 C 384.078 221.134 384.052 221.161 384.025 221.188 C 383.703 221.522 383.453 221.901 383.272 222.329 C 383.166 222.582 383.082 222.852 383.023 223.141 C 382.908 223.7 382.881 224.327 382.942 225.028 C 383.349 229.717 386.54 233.285 388.94 235.34 L 388.94 235.34 L 388.94 241.097" fill="rgb(214,42,43)"/><path d=" M 405.817 247.835 L 388.94 247.835 L 388.94 209.904 C 388.94 208.235 390.3 206.875 391.969 206.875 L 392.99 206.875 C 393.036 208.854 393.577 223.986 397.827 234.883 C 401.52 244.368 404.81 247.168 405.817 247.835 Z " fill="rgb(214,42,43)"/><path d=" M 53.823 226.915 L 50.233 226.279 L 59 176.748 L 62.589 177.383 L 53.823 226.915 Z " fill="rgb(94,110,183)"/><path d=" M 61.252 191.213 L 55.689 190.229 L 58.325 175.333 L 63.888 176.318 L 61.252 191.213" fill="rgb(94,110,183)"/><path d=" M 47.839 233.239 L 44.207 232.934 L 48.41 182.809 L 50.608 179.603 L 52.043 183.114 L 47.839 233.239 Z " fill="rgb(115,51,94)"/><path d=" M 42.791 235.8 L 39.213 236.497 L 29.601 187.123 L 30.841 183.439 L 33.179 186.426 L 42.791 235.8 Z " fill="rgb(30,43,84)"/><path d=" M 50.835 247.285 L 35.255 247.285 L 30.148 206.043 L 55.943 206.043 L 50.835 247.285" fill="rgb(243,115,77)"/><path d=" M 56.709 247.285 L 41.129 247.285 L 38.831 206.043 L 61.817 206.043 L 56.709 247.285 Z " fill="rgb(250,181,73)"/><path d=" M 520.7 309.433 L 520.699 332.137 L 520.7 309.433" fill="rgb(158,31,56)"/><line x1="520.7" y1="313.325" x2="520.699" y2="327.881"/><path d=" M 520.7 264.318 L 520.7 287.022 L 520.7 264.318" fill="rgb(242,108,69)"/><line x1="520.7" y1="268.21" x2="520.7" y2="282.766"/></g></g></svg>